<svg width="253" height="54" viewBox="0 0 253 54" fill="none" xmlns="http://www.w3.org/2000/svg">
<path d="M6.91985 44.4165V51.8663H5.91184V48.4771H1.89326V51.8663H0.885254V44.4165H1.89326V47.7384H5.91184V44.4165H6.91985Z" fill="#004E4E"/>
<path d="M12.9342 51.1292C12.8198 51.2672 12.6835 51.3884 12.5236 51.491C12.3638 51.5937 12.1938 51.6778 12.012 51.7434C11.8303 51.8091 11.6418 51.8579 11.4483 51.8915C11.2548 51.9252 11.0613 51.9403 10.8711 51.9403C10.5076 51.9403 10.171 51.8781 9.86477 51.7552C9.55849 51.6324 9.29261 51.4523 9.06879 51.215C8.84498 50.9778 8.67165 50.6833 8.54544 50.3332C8.42091 49.9832 8.35864 49.581 8.35864 49.1267C8.35864 48.7598 8.41418 48.4165 8.52692 48.0968C8.63967 47.7787 8.80122 47.501 9.01326 47.2671C9.2253 47.0332 9.48277 46.8498 9.78736 46.7169C10.0919 46.5839 10.4352 46.5166 10.8172 46.5166C11.1319 46.5166 11.4247 46.5688 11.694 46.6748C11.9632 46.7808 12.1955 46.9323 12.3907 47.1325C12.5859 47.3311 12.7407 47.5785 12.8501 47.8713C12.9612 48.1641 13.0167 48.4973 13.0167 48.8725C13.0167 49.019 13.0015 49.1149 12.9696 49.1637C12.9376 49.2125 12.8787 49.236 12.7929 49.236H9.27241C9.28251 49.5692 9.32795 49.8587 9.4104 50.1044C9.49118 50.3501 9.60561 50.5554 9.75033 50.7203C9.89674 50.8852 10.0684 51.008 10.2703 51.0888C10.4706 51.1696 10.6961 51.2117 10.9468 51.2117C11.179 51.2117 11.3793 51.1847 11.5476 51.1309C11.7159 51.077 11.8606 51.0181 11.9818 50.9559C12.1029 50.8936 12.2039 50.8347 12.2863 50.7809C12.3688 50.727 12.4378 50.7001 12.4967 50.7001C12.5724 50.7001 12.6313 50.7287 12.6734 50.7876L12.9325 51.1258L12.9342 51.1292ZM12.1854 48.6605C12.1854 48.4451 12.1551 48.2482 12.0945 48.0698C12.0339 47.8915 11.9447 47.7366 11.8286 47.6071C11.7125 47.4775 11.5711 47.3765 11.4045 47.3058C11.2379 47.2352 11.0495 47.1998 10.8374 47.1998C10.3932 47.1998 10.0431 47.3294 9.78399 47.5869C9.52484 47.8443 9.36497 48.2028 9.3027 48.6605H12.1837H12.1854Z" fill="#004E4E"/>
<path d="M14.235 47.3444C14.5261 47.0634 14.8391 46.8547 15.1757 46.715C15.5122 46.577 15.8841 46.5063 16.293 46.5063C16.5875 46.5063 16.8484 46.5552 17.0772 46.6511C17.3061 46.7487 17.4979 46.8833 17.6544 47.0566C17.811 47.23 17.9287 47.4403 18.0078 47.686C18.0869 47.9317 18.1273 48.2026 18.1273 48.4971V51.8661H17.7167C17.6258 51.8661 17.5568 51.851 17.508 51.8224C17.4592 51.7938 17.4205 51.7349 17.3936 51.6474L17.2893 51.1476C17.1513 51.2755 17.015 51.3899 16.8837 51.4875C16.7525 51.5868 16.6128 51.6692 16.4681 51.7366C16.3233 51.8039 16.1668 51.856 16.0036 51.8931C15.8387 51.9301 15.6553 51.9469 15.455 51.9469C15.2547 51.9469 15.0579 51.9183 14.8778 51.8611C14.6977 51.8039 14.5412 51.718 14.4083 51.6036C14.2753 51.4892 14.1693 51.3445 14.0919 51.1694C14.0145 50.9944 13.9741 50.7874 13.9741 50.5485C13.9741 50.3398 14.0313 50.1412 14.1458 49.9477C14.2602 49.7559 14.4453 49.5842 14.7028 49.4361C14.9586 49.288 15.2935 49.1652 15.7057 49.0693C16.118 48.9734 16.6246 48.9195 17.2236 48.906V48.4954C17.2236 48.0865 17.1345 47.7769 16.9578 47.5682C16.7811 47.3579 16.5236 47.2535 16.1837 47.2535C15.9548 47.2535 15.763 47.2821 15.6098 47.3393C15.455 47.3966 15.3221 47.4605 15.2093 47.5312C15.0966 47.6019 14.999 47.6658 14.9182 47.723C14.8374 47.7802 14.7566 47.8089 14.6759 47.8089C14.6136 47.8089 14.5597 47.792 14.5143 47.7601C14.4689 47.7264 14.4318 47.686 14.3999 47.6372L14.2333 47.341L14.235 47.3444ZM17.2236 49.4967C16.7979 49.5102 16.4344 49.5438 16.1349 49.5977C15.8353 49.6515 15.5913 49.7222 15.4012 49.808C15.2127 49.8956 15.0747 49.9965 14.9905 50.1143C14.9064 50.2321 14.8626 50.3634 14.8626 50.5098C14.8626 50.6562 14.8845 50.7672 14.93 50.8682C14.9754 50.9692 15.036 51.0516 15.1151 51.1156C15.1942 51.1795 15.285 51.2267 15.3911 51.2553C15.4971 51.2839 15.6098 51.299 15.731 51.299C15.8942 51.299 16.0423 51.2822 16.1786 51.2502C16.3132 51.2166 16.4411 51.1694 16.5606 51.1072C16.6801 51.0449 16.7945 50.9709 16.9039 50.8834C17.0133 50.7975 17.1193 50.6983 17.2236 50.5872V49.495V49.4967Z" fill="#004E4E"/>
<path d="M20.7122 44.2095V51.868H19.7866V44.2095H20.7122Z" fill="#004E4E"/>
<path d="M24.0458 51.9503C23.6302 51.9503 23.3104 51.8342 23.0866 51.602C22.8628 51.3698 22.7517 51.0349 22.7517 50.599V47.3764H22.1173C22.0618 47.3764 22.0147 47.3596 21.9776 47.3276C21.9389 47.294 21.9204 47.2435 21.9204 47.1745V46.8059L22.7837 46.6966L22.9974 45.0693C23.0075 45.0171 23.0311 44.975 23.0681 44.9414C23.1051 44.9077 23.1522 44.8926 23.2111 44.8926H23.679V46.7067H25.2019V47.3781H23.679V50.5384C23.679 50.7606 23.7328 50.9255 23.8405 51.0332C23.9482 51.1409 24.0862 51.1947 24.2562 51.1947C24.3538 51.1947 24.4379 51.1813 24.5086 51.156C24.5793 51.1308 24.6415 51.1022 24.6937 51.0702C24.7459 51.0382 24.7896 51.0096 24.8266 50.9844C24.8637 50.9591 24.8956 50.9457 24.9226 50.9457C24.9714 50.9457 25.0134 50.9743 25.0521 51.0349L25.3231 51.4775C25.1632 51.6272 24.9714 51.7433 24.7459 51.8275C24.5204 51.9116 24.2881 51.9554 24.0492 51.9554L24.0458 51.9503Z" fill="#004E4E"/>
<path d="M27.3056 47.3022C27.5311 47.0633 27.7801 46.8731 28.0544 46.7301C28.3287 46.5887 28.6434 46.5163 29.0002 46.5163C29.2879 46.5163 29.542 46.5635 29.7625 46.6594C29.9829 46.7553 30.1664 46.8899 30.3128 47.0649C30.4609 47.24 30.5719 47.4503 30.6477 47.696C30.7234 47.9417 30.7621 48.2143 30.7621 48.5122V51.866H29.8315V48.5122C29.8315 48.1133 29.7406 47.8037 29.5589 47.5849C29.3771 47.3645 29.1011 47.2551 28.7292 47.2551C28.4549 47.2551 28.1992 47.3207 27.9619 47.452C27.7246 47.5833 27.5058 47.7616 27.3039 47.9871V51.866H26.3733V44.2075H27.3039V47.3005L27.3056 47.3022Z" fill="#004E4E"/>
<path d="M36.0595 47.5361C36.0326 47.5748 36.004 47.6034 35.977 47.6253C35.9484 47.6455 35.9114 47.6573 35.8626 47.6573C35.8104 47.6573 35.7532 47.6354 35.691 47.5917C35.6287 47.5479 35.5513 47.5008 35.4587 47.4486C35.3679 47.3964 35.2551 47.3493 35.1205 47.3056C34.9859 47.2618 34.8226 47.2399 34.6291 47.2399C34.3699 47.2399 34.1411 47.2854 33.9425 47.3779C33.7439 47.4705 33.579 47.6017 33.4461 47.7751C33.3131 47.9484 33.2122 48.1588 33.1449 48.4045C33.0775 48.6501 33.0439 48.9261 33.0439 49.2307C33.0439 49.5353 33.0809 49.8332 33.1533 50.0805C33.2256 50.3279 33.3283 50.5366 33.4629 50.7049C33.5959 50.8731 33.7574 51.001 33.9459 51.0902C34.1344 51.1794 34.3464 51.2232 34.5837 51.2232C34.8209 51.2232 34.9943 51.1963 35.1407 51.1424C35.2854 51.0886 35.4066 51.0297 35.5025 50.9623C35.5984 50.8967 35.6775 50.8361 35.7414 50.7823C35.8054 50.7284 35.8693 50.7015 35.9316 50.7015C36.0073 50.7015 36.0662 50.7301 36.1083 50.789L36.3675 51.1273C36.253 51.2686 36.1234 51.3915 35.977 51.4907C35.8306 51.5917 35.6741 51.6759 35.5059 51.7432C35.3376 51.8105 35.1626 51.8593 34.9774 51.8913C34.7923 51.9232 34.6072 51.9384 34.4154 51.9384C34.0856 51.9384 33.7793 51.8778 33.4982 51.7566C33.2155 51.6355 32.9698 51.4588 32.7629 51.2282C32.5542 50.9977 32.391 50.715 32.2748 50.3784C32.157 50.0418 32.0981 49.6598 32.0981 49.229C32.0981 48.8369 32.152 48.4751 32.2614 48.1419C32.3708 47.8087 32.5306 47.5227 32.7393 47.282C32.9497 47.0414 33.2071 46.8529 33.5134 46.7183C33.8197 46.5836 34.1731 46.5146 34.5719 46.5146C34.9421 46.5146 35.2686 46.5752 35.5513 46.6947C35.834 46.8142 36.0847 46.9825 36.3018 47.2012L36.0578 47.5344L36.0595 47.5361Z" fill="#004E4E"/>
<path d="M37.4427 47.3444C37.7339 47.0634 38.0469 46.8547 38.3834 46.715C38.72 46.577 39.0919 46.5063 39.5008 46.5063C39.7953 46.5063 40.0578 46.5552 40.2867 46.6511C40.5156 46.7487 40.7074 46.8833 40.8639 47.0566C41.0204 47.23 41.1382 47.4403 41.2173 47.686C41.2964 47.9317 41.3368 48.2026 41.3368 48.4971V51.8661H40.9262C40.8353 51.8661 40.7663 51.851 40.7175 51.8224C40.6687 51.7938 40.63 51.7349 40.6031 51.6474L40.4987 51.1476C40.3608 51.2755 40.2244 51.3899 40.0932 51.4875C39.9619 51.5868 39.8223 51.6692 39.6775 51.7366C39.5328 51.8039 39.3763 51.856 39.2131 51.8931C39.0482 51.9301 38.8647 51.9469 38.6645 51.9469C38.4642 51.9469 38.2673 51.9183 38.0873 51.8611C37.9072 51.8039 37.7507 51.718 37.6161 51.6036C37.4831 51.4892 37.3771 51.3445 37.2997 51.1694C37.2223 50.9944 37.1836 50.7874 37.1836 50.5485C37.1836 50.3398 37.2408 50.1412 37.3552 49.9477C37.4697 49.7559 37.6548 49.5842 37.9106 49.4361C38.1664 49.288 38.5012 49.1652 38.9135 49.0693C39.3258 48.9734 39.8323 48.9195 40.4314 48.906V48.4954C40.4314 48.0865 40.3422 47.7769 40.1655 47.5682C39.9889 47.3595 39.7314 47.2535 39.3915 47.2535C39.1626 47.2535 38.9707 47.2821 38.8176 47.3393C38.6628 47.3966 38.5298 47.4605 38.4171 47.5312C38.3043 47.6019 38.2067 47.6658 38.126 47.723C38.0452 47.7802 37.9644 47.8089 37.8836 47.8089C37.8214 47.8089 37.7675 47.792 37.7221 47.7601C37.6767 47.7264 37.6396 47.686 37.6077 47.6372L37.4411 47.341L37.4427 47.3444ZM40.4314 49.4967C40.0057 49.5102 39.6422 49.5438 39.3426 49.5977C39.0431 49.6515 38.7991 49.7222 38.6089 49.808C38.4205 49.8956 38.2825 49.9965 38.1983 50.1143C38.1142 50.2321 38.0704 50.3634 38.0704 50.5098C38.0704 50.6562 38.0923 50.7672 38.1378 50.8682C38.1832 50.9692 38.2438 51.0516 38.3229 51.1156C38.4003 51.1795 38.4928 51.2267 38.5988 51.2553C38.7049 51.2839 38.8176 51.299 38.9388 51.299C39.102 51.299 39.2501 51.2822 39.3864 51.2502C39.521 51.2166 39.6489 51.1694 39.7684 51.1072C39.8879 51.0449 40.0023 50.9709 40.1117 50.8834C40.2211 50.7959 40.3271 50.6983 40.4314 50.5872V49.495V49.4967Z" fill="#004E4E"/>
<path d="M43.8425 47.6557C44.0091 47.2956 44.2128 47.0129 44.4568 46.8109C44.6991 46.6073 44.9953 46.5063 45.3453 46.5063C45.4564 46.5063 45.5624 46.5181 45.665 46.5434C45.7677 46.5669 45.8586 46.6056 45.9377 46.6578L45.8703 47.3494C45.8501 47.4353 45.798 47.479 45.7138 47.479C45.665 47.479 45.5944 47.4689 45.5001 47.4487C45.4059 47.4285 45.3015 47.4168 45.1838 47.4168C45.0172 47.4168 44.8691 47.4403 44.7395 47.4891C44.6099 47.5379 44.4938 47.6103 44.3911 47.7045C44.2885 47.7988 44.1976 47.9182 44.1152 48.0579C44.0344 48.1976 43.9603 48.3591 43.8947 48.5392V51.8661H42.9641V46.5989H43.4942C43.5952 46.5989 43.6642 46.6174 43.7029 46.6561C43.7416 46.6948 43.7668 46.7605 43.7803 46.853L43.8425 47.654V47.6557Z" fill="#004E4E"/>
<path d="M51.0282 51.1292C50.9138 51.2672 50.7775 51.3884 50.6176 51.491C50.4577 51.5937 50.2878 51.6778 50.106 51.7434C49.9243 51.8091 49.7358 51.8579 49.5423 51.8915C49.3488 51.9252 49.1552 51.9403 48.9651 51.9403C48.6016 51.9403 48.265 51.8781 47.9588 51.7552C47.6525 51.6324 47.3866 51.4523 47.1628 51.215C46.939 50.9778 46.7656 50.6833 46.6394 50.3332C46.5149 49.9832 46.4526 49.581 46.4526 49.1267C46.4526 48.7598 46.5082 48.4165 46.6209 48.0968C46.7337 47.7787 46.8952 47.501 47.1073 47.2671C47.3193 47.0332 47.5768 46.8498 47.8813 46.7169C48.1859 46.5839 48.5292 46.5166 48.9112 46.5166C49.2259 46.5166 49.5187 46.5688 49.788 46.6748C50.0572 46.7808 50.2895 46.9323 50.4847 47.1325C50.6799 47.3311 50.833 47.5785 50.9441 47.8713C51.0551 48.1641 51.1107 48.4973 51.1107 48.8725C51.1107 49.019 51.0955 49.1149 51.0636 49.1637C51.0333 49.2125 50.9727 49.236 50.8869 49.236H47.3664C47.3765 49.5692 47.4219 49.8587 47.5044 50.1044C47.5852 50.3501 47.6996 50.5554 47.8443 50.7203C47.9907 50.8852 48.1624 51.008 48.3643 51.0888C48.5646 51.1696 48.7901 51.2117 49.0408 51.2117C49.273 51.2117 49.4733 51.1847 49.6416 51.1309C49.8099 51.077 49.9546 51.0181 50.0757 50.9559C50.1969 50.8936 50.2979 50.8347 50.3803 50.7809C50.4611 50.727 50.5318 50.7001 50.5907 50.7001C50.6664 50.7001 50.7253 50.7287 50.7674 50.7876L51.0265 51.1258L51.0282 51.1292ZM50.2794 48.6605C50.2794 48.4451 50.2491 48.2482 50.1885 48.0698C50.1279 47.8915 50.0387 47.7366 49.9226 47.6071C49.8065 47.4775 49.6651 47.3765 49.4985 47.3058C49.3319 47.2352 49.1435 47.1998 48.9314 47.1998C48.4872 47.1998 48.1371 47.3294 47.878 47.5869C47.6188 47.8443 47.459 48.2028 47.3967 48.6605H50.2777H50.2794Z" fill="#004E4E"/>
<path d="M62.4444 48.1436C62.4444 48.7023 62.3552 49.2139 62.1785 49.68C62.0018 50.1462 61.7527 50.5467 61.4296 50.8832C61.1065 51.2198 60.7195 51.4806 60.2685 51.6658C59.8158 51.8509 59.316 51.9434 58.7691 51.9434C58.2222 51.9434 57.7224 51.8509 57.2714 51.6658C56.8204 51.4806 56.435 51.2198 56.1119 50.8832C55.7905 50.5467 55.5397 50.1462 55.3631 49.68C55.1864 49.2139 55.0972 48.7023 55.0972 48.1436C55.0972 47.5849 55.1864 47.0733 55.3631 46.6072C55.5397 46.1411 55.7888 45.7389 56.1119 45.4006C56.435 45.0624 56.8204 44.7999 57.2714 44.6131C57.7224 44.4263 58.2205 44.332 58.7691 44.332C59.3177 44.332 59.8175 44.4263 60.2685 44.6131C60.7212 44.7999 61.1082 45.0624 61.4296 45.4006C61.751 45.7389 62.0018 46.1411 62.1785 46.6072C62.3552 47.0733 62.4444 47.5849 62.4444 48.1436ZM61.4094 48.1436C61.4094 47.6859 61.3472 47.2753 61.2226 46.9118C61.0981 46.5483 60.9214 46.2403 60.6925 45.9896C60.4637 45.7389 60.186 45.5453 59.8612 45.409C59.5348 45.2744 59.1713 45.2071 58.7691 45.2071C58.3669 45.2071 58.0084 45.2744 57.682 45.409C57.3555 45.5437 57.0778 45.7372 56.8473 45.9896C56.6168 46.242 56.4401 46.5483 56.3138 46.9118C56.1893 47.2753 56.1271 47.6859 56.1271 48.1436C56.1271 48.6013 56.1893 49.0103 56.3138 49.3738C56.4384 49.7356 56.6168 50.0418 56.8473 50.2943C57.0778 50.545 57.3555 50.7385 57.682 50.8715C58.0084 51.0044 58.3703 51.0717 58.7691 51.0717C59.1679 51.0717 59.5348 51.0044 59.8612 50.8715C60.1877 50.7385 60.4637 50.545 60.6925 50.2943C60.9214 50.0435 61.0981 49.7356 61.2226 49.3738C61.3472 49.012 61.4094 48.6013 61.4094 48.1436Z" fill="#004E4E"/>
<path d="M68.1375 46.6006V51.8678H67.5872C67.4559 51.8678 67.3718 51.8039 67.3381 51.676L67.2658 51.1089C67.0369 51.3613 66.7811 51.5649 66.4967 51.7197C66.2123 51.8745 65.8858 51.952 65.519 51.952C65.2312 51.952 64.9771 51.9048 64.7567 51.8089C64.5362 51.713 64.3511 51.58 64.203 51.4067C64.0533 51.2334 63.9422 51.023 63.8681 50.7773C63.7941 50.5316 63.7571 50.259 63.7571 49.9612V46.6023H64.6826V49.9612C64.6826 50.36 64.7735 50.668 64.9552 50.8867C65.137 51.1055 65.4147 51.2149 65.7899 51.2149C66.0642 51.2149 66.32 51.1492 66.5573 51.0197C66.7946 50.8901 67.0133 50.71 67.2153 50.4812V46.6023H68.1408L68.1375 46.6006Z" fill="#004E4E"/>
<path d="M71.4391 51.9503C71.0235 51.9503 70.7037 51.8342 70.4799 51.602C70.2561 51.3698 70.145 51.0349 70.145 50.599V47.3764H69.5106C69.4551 47.3764 69.408 47.3596 69.3709 47.3276C69.3322 47.294 69.3137 47.2435 69.3137 47.1745V46.8059L70.177 46.6966L70.3907 45.0693C70.4008 45.0171 70.4244 44.975 70.4614 44.9414C70.4984 44.9077 70.5455 44.8926 70.6044 44.8926H71.0723V46.7067H72.5952V47.3781H71.0723V50.5384C71.0723 50.7606 71.1261 50.9255 71.2338 51.0332C71.3415 51.1409 71.4795 51.1947 71.6495 51.1947C71.7471 51.1947 71.8312 51.1813 71.9019 51.156C71.9726 51.1308 72.0348 51.1022 72.087 51.0702C72.1392 51.0382 72.1829 51.0096 72.2199 50.9844C72.257 50.9591 72.2889 50.9457 72.3159 50.9457C72.3647 50.9457 72.4084 50.9743 72.4454 51.0349L72.7164 51.4775C72.5565 51.6272 72.3647 51.7433 72.1392 51.8275C71.9137 51.9116 71.6814 51.9554 71.4425 51.9554L71.4391 51.9503Z" fill="#004E4E"/>
<path d="M76.8343 47.4689C76.7922 47.5446 76.7283 47.5833 76.6425 47.5833C76.5903 47.5833 76.5314 47.5648 76.4658 47.5261C76.4001 47.4874 76.3194 47.4453 76.2234 47.3982C76.1275 47.3511 76.0148 47.3073 75.8835 47.2686C75.7522 47.2282 75.5957 47.208 75.4157 47.208C75.2592 47.208 75.1195 47.2282 74.995 47.2686C74.8705 47.309 74.7644 47.3628 74.6752 47.4318C74.5877 47.5008 74.5187 47.5816 74.4733 47.6742C74.4262 47.7667 74.4026 47.866 74.4026 47.9737C74.4026 48.1083 74.4413 48.2211 74.5204 48.312C74.5978 48.4028 74.7022 48.4802 74.8301 48.5459C74.958 48.6115 75.1044 48.6704 75.2676 48.7209C75.4308 48.7714 75.5974 48.8252 75.7691 48.8824C75.9407 48.9396 76.1073 49.0036 76.2706 49.0726C76.4338 49.1416 76.5785 49.2291 76.7064 49.3317C76.8343 49.4361 76.937 49.564 77.016 49.7137C77.0951 49.8635 77.1338 50.0453 77.1338 50.2573C77.1338 50.4996 77.0901 50.7251 77.0043 50.9304C76.9168 51.1374 76.7889 51.3158 76.6189 51.4656C76.4489 51.617 76.2403 51.7348 75.9946 51.8223C75.7489 51.9081 75.4645 51.9519 75.1414 51.9519C74.7745 51.9519 74.4413 51.8913 74.1435 51.7718C73.8456 51.6523 73.5932 51.4992 73.3845 51.3124L73.6033 50.959C73.6319 50.9136 73.6639 50.8799 73.7026 50.8547C73.7413 50.8311 73.7884 50.8177 73.8473 50.8177C73.9096 50.8177 73.9752 50.8412 74.0442 50.89C74.1132 50.9388 74.1973 50.9927 74.2966 51.0516C74.3959 51.1105 74.5154 51.1643 74.6584 51.2131C74.7998 51.2619 74.9765 51.2855 75.1885 51.2855C75.3686 51.2855 75.5268 51.2619 75.6614 51.2148C75.796 51.1677 75.9088 51.1054 75.9996 51.0247C76.0905 50.9439 76.1561 50.853 76.1999 50.7487C76.2436 50.6443 76.2655 50.5333 76.2655 50.4155C76.2655 50.2691 76.2268 50.1496 76.1477 50.0537C76.0686 49.9578 75.966 49.877 75.8381 49.8097C75.7102 49.7423 75.5638 49.6835 75.3989 49.633C75.2339 49.5825 75.0657 49.5303 74.894 49.4748C74.7224 49.4192 74.5541 49.3553 74.3892 49.2846C74.2242 49.2139 74.0778 49.1248 73.95 49.0171C73.8221 48.9094 73.7177 48.7764 73.6403 48.6199C73.5629 48.4617 73.5225 48.2716 73.5225 48.0461C73.5225 47.8458 73.5646 47.6523 73.647 47.4655C73.7295 47.2804 73.8507 47.1172 74.0105 46.9775C74.1704 46.8378 74.3656 46.7251 74.5978 46.6426C74.8301 46.5601 75.0959 46.5181 75.3938 46.5181C75.7405 46.5181 76.0518 46.5719 76.3278 46.6813C76.6038 46.7907 76.841 46.9405 77.043 47.1306L76.8343 47.4689Z" fill="#004E4E"/>
<path d="M80.7082 46.5166C81.0936 46.5166 81.4402 46.5805 81.7482 46.7084C82.0561 46.8363 82.3203 47.0181 82.5391 47.2537C82.7579 47.4893 82.9245 47.7737 83.0406 48.1085C83.1567 48.4434 83.2156 48.817 83.2156 49.2293C83.2156 49.6416 83.1584 50.0202 83.0406 50.3517C82.9245 50.6849 82.7579 50.9693 82.5391 51.2049C82.3203 51.4405 82.0578 51.6223 81.7482 51.7485C81.4402 51.8747 81.0936 51.9386 80.7082 51.9386C80.3228 51.9386 79.9711 51.8747 79.6615 51.7485C79.3518 51.6223 79.0876 51.4405 78.8689 51.2049C78.6501 50.9693 78.4835 50.6849 78.3674 50.3517C78.2513 50.0185 78.1924 49.645 78.1924 49.2293C78.1924 48.8136 78.2513 48.4434 78.3674 48.1085C78.4835 47.7737 78.6501 47.4893 78.8689 47.2537C79.0876 47.0181 79.3518 46.8363 79.6615 46.7084C79.9711 46.5805 80.3212 46.5166 80.7082 46.5166ZM80.7082 51.2167C81.2282 51.2167 81.6169 51.0417 81.8727 50.6934C82.1285 50.345 82.2581 49.8587 82.2581 49.2344C82.2581 48.61 82.1302 48.1186 81.8727 47.7686C81.6169 47.4186 81.2282 47.2436 80.7082 47.2436C80.444 47.2436 80.2151 47.289 80.0199 47.3782C79.8247 47.4691 79.6615 47.5986 79.5319 47.7686C79.4023 47.9386 79.3047 48.1472 79.2408 48.3946C79.1768 48.642 79.1449 48.923 79.1449 49.2344C79.1449 49.8587 79.2744 50.345 79.5319 50.6934C79.7911 51.0417 80.1832 51.2167 80.7099 51.2167H80.7082Z" fill="#004E4E"/>
<path d="M88.9321 46.6006V51.8678H88.3819C88.2506 51.8678 88.1664 51.8039 88.1328 51.676L88.0604 51.1089C87.8316 51.3613 87.5758 51.5649 87.2914 51.7197C87.007 51.8745 86.6822 51.952 86.3137 51.952C86.0259 51.952 85.7718 51.9048 85.5514 51.8089C85.3309 51.713 85.1475 51.58 84.9977 51.4067C84.8479 51.2334 84.7369 51.023 84.6628 50.7773C84.5888 50.5316 84.5518 50.259 84.5518 49.9612V46.6023H85.4773V49.9612C85.4773 50.36 85.5682 50.668 85.7499 50.8867C85.9317 51.1055 86.2093 51.2149 86.5846 51.2149C86.8589 51.2149 87.1147 51.1492 87.352 51.0197C87.5892 50.8901 87.808 50.71 88.0099 50.4812V46.6023H88.9355L88.9321 46.6006Z" fill="#004E4E"/>
<path d="M91.4949 47.6557C91.6615 47.2956 91.8651 47.0129 92.1091 46.8109C92.3531 46.609 92.6476 46.5063 92.9976 46.5063C93.1087 46.5063 93.2147 46.5181 93.3174 46.5434C93.42 46.5669 93.5109 46.6056 93.59 46.6578L93.5227 47.3494C93.5025 47.4353 93.4503 47.479 93.3662 47.479C93.3174 47.479 93.2467 47.4689 93.1525 47.4487C93.0582 47.4285 92.9539 47.4168 92.8361 47.4168C92.6695 47.4168 92.5214 47.4403 92.3918 47.4891C92.2623 47.5379 92.1461 47.6103 92.0435 47.7045C91.9408 47.7988 91.85 47.9182 91.7675 48.0579C91.6867 48.1976 91.6127 48.3591 91.5471 48.5392V51.8661H90.6165V46.5989H91.1465C91.2475 46.5989 91.3165 46.6174 91.3552 46.6561C91.3939 46.6948 91.4192 46.7605 91.4326 46.853L91.4949 47.654V47.6557Z" fill="#004E4E"/>
<path d="M98.0732 47.5361C98.0446 47.5748 98.0176 47.6034 97.989 47.6253C97.9621 47.6455 97.9234 47.6573 97.8746 47.6573C97.8224 47.6573 97.7652 47.6354 97.703 47.5917C97.6407 47.5479 97.5633 47.5008 97.4724 47.4486C97.3798 47.3964 97.2671 47.3493 97.1342 47.3056C97.0012 47.2618 96.8363 47.2399 96.6428 47.2399C96.3836 47.2399 96.1548 47.2854 95.9562 47.3779C95.7576 47.4705 95.5927 47.6017 95.4598 47.7751C95.3268 47.9484 95.2258 48.1588 95.1585 48.4045C95.0912 48.6501 95.0576 48.9261 95.0576 49.2307C95.0576 49.5353 95.0946 49.8332 95.1669 50.0805C95.2393 50.3279 95.342 50.5366 95.4766 50.7049C95.6095 50.8731 95.7711 51.001 95.9595 51.0902C96.148 51.1794 96.3601 51.2232 96.5957 51.2232C96.8313 51.2232 97.0063 51.1963 97.1527 51.1424C97.2974 51.0886 97.4186 51.0297 97.5145 50.9623C97.6104 50.8967 97.6895 50.8361 97.7534 50.7823C97.8174 50.7284 97.8813 50.7015 97.9436 50.7015C98.0193 50.7015 98.0782 50.7301 98.1203 50.789L98.3794 51.1273C98.265 51.2686 98.1354 51.3915 97.989 51.4907C97.8443 51.5917 97.6861 51.6759 97.5195 51.7432C97.3512 51.8105 97.1762 51.8593 96.9911 51.8913C96.806 51.9232 96.6209 51.9384 96.4291 51.9384C96.0992 51.9384 95.7946 51.8778 95.5119 51.7566C95.2292 51.6355 94.9835 51.4588 94.7765 51.2282C94.5679 50.9977 94.4063 50.715 94.2885 50.3784C94.1707 50.0418 94.1118 49.6598 94.1118 49.229C94.1118 48.8369 94.1657 48.4751 94.275 48.1419C94.3844 47.8087 94.5443 47.5227 94.753 47.282C94.9633 47.0414 95.2208 46.8529 95.5271 46.7183C95.8333 46.5836 96.1867 46.5146 96.5856 46.5146C96.9558 46.5146 97.2823 46.5752 97.565 46.6947C97.8477 46.8142 98.0984 46.9825 98.3155 47.2012L98.0715 47.5344L98.0732 47.5361Z" fill="#004E4E"/>
<path d="M100.766 44.9467C100.766 45.0375 100.747 45.1217 100.71 45.1991C100.673 45.2765 100.626 45.3472 100.565 45.4078C100.505 45.4683 100.434 45.5155 100.352 45.5508C100.269 45.5861 100.185 45.603 100.094 45.603C100.003 45.603 99.9191 45.5861 99.8417 45.5508C99.7643 45.5155 99.6953 45.4683 99.6364 45.4078C99.5775 45.3472 99.5304 45.2782 99.4967 45.1991C99.4614 45.1217 99.4446 45.0375 99.4446 44.9467C99.4446 44.8558 99.4614 44.7717 99.4967 44.6892C99.5321 44.6084 99.5775 44.5361 99.6364 44.4755C99.6953 44.4149 99.7643 44.3678 99.8417 44.3324C99.9191 44.2971 100.003 44.2803 100.094 44.2803C100.185 44.2803 100.269 44.2971 100.352 44.3324C100.434 44.3678 100.505 44.4149 100.565 44.4755C100.626 44.5361 100.675 44.6067 100.71 44.6892C100.747 44.77 100.766 44.8558 100.766 44.9467ZM100.569 46.5992V51.8664H99.6432V46.5992H100.569Z" fill="#004E4E"/>
<path d="M103.177 47.3647C103.292 47.2368 103.413 47.1207 103.541 47.0164C103.668 46.9121 103.805 46.8229 103.949 46.7488C104.093 46.6748 104.246 46.6176 104.407 46.5772C104.569 46.5368 104.742 46.5166 104.929 46.5166C105.217 46.5166 105.471 46.5637 105.691 46.6596C105.912 46.7556 106.095 46.8902 106.241 47.0652C106.39 47.2402 106.501 47.4506 106.576 47.6963C106.652 47.9419 106.691 48.2146 106.691 48.5124V51.8663H105.76V48.5124C105.76 48.1136 105.669 47.804 105.488 47.5852C105.306 47.3647 105.03 47.2554 104.658 47.2554C104.384 47.2554 104.128 47.321 103.891 47.4522C103.653 47.5835 103.435 47.7619 103.233 47.9874V51.8663H102.302V46.5991H102.859C102.99 46.5991 103.073 46.663 103.103 46.7909L103.175 47.3631L103.177 47.3647Z" fill="#004E4E"/>
<path d="M112.769 46.8075V47.1508C112.769 47.2652 112.697 47.3375 112.55 47.3695L111.953 47.4469C112.071 47.6758 112.13 47.9282 112.13 48.2059C112.13 48.4617 112.081 48.6956 111.982 48.9059C111.882 49.1163 111.746 49.2947 111.574 49.4444C111.401 49.5942 111.192 49.7086 110.95 49.7877C110.708 49.8668 110.444 49.9072 110.159 49.9072C109.913 49.9072 109.681 49.8786 109.462 49.8197C109.351 49.8887 109.267 49.9627 109.208 50.0402C109.149 50.1176 109.121 50.1967 109.121 50.2774C109.121 50.402 109.171 50.4962 109.274 50.5601C109.377 50.6241 109.511 50.6695 109.676 50.6981C109.843 50.7267 110.033 50.7436 110.245 50.7503C110.459 50.757 110.676 50.7688 110.9 50.784C111.123 50.7991 111.342 50.826 111.554 50.8647C111.768 50.9034 111.956 50.9657 112.123 51.0515C112.29 51.139 112.424 51.2585 112.525 51.41C112.626 51.5614 112.678 51.76 112.678 52.0023C112.678 52.2278 112.623 52.4466 112.51 52.6569C112.397 52.869 112.236 53.0558 112.024 53.2207C111.812 53.3856 111.553 53.5169 111.246 53.6161C110.94 53.7154 110.593 53.7642 110.21 53.7642C109.826 53.7642 109.489 53.7255 109.202 53.6498C108.914 53.5741 108.675 53.4714 108.485 53.3435C108.295 53.2156 108.152 53.0675 108.056 52.8993C107.96 52.731 107.913 52.556 107.913 52.3709C107.913 52.1117 107.993 51.8913 108.157 51.7112C108.32 51.5311 108.544 51.3864 108.828 51.2804C108.672 51.2114 108.549 51.1188 108.456 51.0027C108.364 50.8866 108.318 50.7301 108.318 50.5315C108.318 50.4558 108.332 50.3767 108.36 50.2943C108.389 50.2135 108.431 50.131 108.488 50.0503C108.545 49.9695 108.616 49.8921 108.698 49.8197C108.781 49.7473 108.879 49.6834 108.99 49.6279C108.73 49.4815 108.527 49.2896 108.382 49.049C108.237 48.8083 108.163 48.529 108.163 48.2092C108.163 47.9535 108.212 47.7195 108.311 47.5092C108.411 47.2988 108.549 47.1205 108.725 46.9741C108.902 46.826 109.112 46.7132 109.356 46.6341C109.6 46.555 109.868 46.5146 110.159 46.5146C110.388 46.5146 110.602 46.5399 110.799 46.5904C110.996 46.6409 111.176 46.7149 111.339 46.8108H112.769V46.8075ZM111.829 52.1521C111.829 52.0242 111.791 51.9199 111.719 51.8408C111.647 51.7617 111.547 51.6994 111.425 51.654C111.302 51.6085 111.159 51.5766 110.996 51.5581C110.832 51.5395 110.661 51.5244 110.479 51.5143C110.297 51.5042 110.112 51.4941 109.925 51.4823C109.738 51.4706 109.558 51.4537 109.385 51.4302C109.192 51.521 109.032 51.6338 108.909 51.7701C108.786 51.9064 108.724 52.068 108.724 52.2514C108.724 52.3692 108.754 52.4786 108.815 52.5812C108.875 52.6839 108.968 52.7714 109.092 52.8471C109.217 52.9211 109.373 52.98 109.563 53.0238C109.752 53.0675 109.976 53.0894 110.232 53.0894C110.487 53.0894 110.704 53.0675 110.901 53.0221C111.098 52.9767 111.266 52.9127 111.403 52.8303C111.539 52.7461 111.645 52.6485 111.717 52.5341C111.79 52.4197 111.827 52.2934 111.827 52.1555L111.829 52.1521ZM110.159 49.293C110.346 49.293 110.511 49.2677 110.654 49.2156C110.795 49.1634 110.915 49.091 111.012 48.9968C111.11 48.9026 111.182 48.7915 111.231 48.6619C111.28 48.5324 111.303 48.3893 111.303 48.2328C111.303 47.9097 111.206 47.6539 111.009 47.4638C110.814 47.2736 110.529 47.1777 110.159 47.1777C109.789 47.1777 109.499 47.2736 109.304 47.4638C109.109 47.6539 109.01 47.9114 109.01 48.2328C109.01 48.3893 109.035 48.5324 109.086 48.6619C109.136 48.7915 109.21 48.9043 109.306 48.9968C109.404 49.091 109.523 49.1634 109.664 49.2156C109.806 49.2677 109.971 49.293 110.157 49.293H110.159Z" fill="#004E4E"/>
<path d="M122.279 50.3279C122.334 50.3279 122.383 50.3498 122.425 50.3952L122.826 50.826C122.521 51.1794 122.151 51.4554 121.715 51.6523C121.281 51.8492 120.754 51.9485 120.137 51.9485C119.603 51.9485 119.118 51.8559 118.681 51.6708C118.245 51.4857 117.871 51.2249 117.564 50.8917C117.256 50.5568 117.017 50.1563 116.847 49.6884C116.677 49.2206 116.593 48.7057 116.593 48.1436C116.593 47.5816 116.68 47.0666 116.858 46.5988C117.037 46.131 117.284 45.7288 117.604 45.3922C117.924 45.0556 118.309 44.7948 118.755 44.6097C119.203 44.4246 119.696 44.332 120.236 44.332C120.776 44.332 121.234 44.4162 121.639 44.5861C122.045 44.7561 122.402 44.9866 122.71 45.2778L122.376 45.7406C122.356 45.7759 122.329 45.8045 122.296 45.8264C122.262 45.8483 122.218 45.86 122.163 45.86C122.1 45.86 122.025 45.8264 121.934 45.7591C121.843 45.6918 121.725 45.616 121.58 45.5336C121.436 45.4511 121.252 45.3754 121.035 45.3081C120.816 45.2408 120.549 45.2071 120.229 45.2071C119.844 45.2071 119.492 45.2744 119.174 45.4074C118.854 45.5403 118.58 45.7338 118.349 45.9862C118.119 46.2387 117.939 46.5483 117.811 46.9118C117.683 47.2753 117.619 47.6859 117.619 48.1436C117.619 48.6013 117.686 49.022 117.819 49.3855C117.952 49.749 118.136 50.057 118.365 50.3077C118.595 50.5585 118.868 50.7503 119.181 50.8816C119.494 51.0128 119.834 51.0785 120.197 51.0785C120.419 51.0785 120.62 51.065 120.798 51.0397C120.976 51.0145 121.141 50.9724 121.293 50.9169C121.444 50.8614 121.584 50.7907 121.713 50.7066C121.843 50.6224 121.973 50.5198 122.1 50.402C122.159 50.3498 122.218 50.3245 122.277 50.3245L122.279 50.3279Z" fill="#004E4E"/>
<path d="M126.111 46.5166C126.496 46.5166 126.843 46.5805 127.151 46.7084C127.458 46.8363 127.723 47.0181 127.941 47.2537C128.16 47.4893 128.327 47.7737 128.443 48.1085C128.559 48.4434 128.618 48.817 128.618 49.2293C128.618 49.6416 128.559 50.0202 128.443 50.3517C128.327 50.6849 128.16 50.9693 127.941 51.2049C127.723 51.4405 127.46 51.6223 127.151 51.7485C126.843 51.8747 126.496 51.9386 126.111 51.9386C125.725 51.9386 125.373 51.8747 125.064 51.7485C124.754 51.6223 124.49 51.4405 124.271 51.2049C124.052 50.9693 123.886 50.6849 123.77 50.3517C123.654 50.0185 123.595 49.645 123.595 49.2293C123.595 48.8136 123.654 48.4434 123.77 48.1085C123.886 47.7737 124.052 47.4893 124.271 47.2537C124.49 47.0181 124.754 46.8363 125.064 46.7084C125.373 46.5805 125.723 46.5166 126.111 46.5166ZM126.111 51.2167C126.631 51.2167 127.019 51.0417 127.275 50.6934C127.531 50.345 127.66 49.8587 127.66 49.2344C127.66 48.61 127.533 48.1186 127.275 47.7686C127.019 47.4186 126.631 47.2436 126.111 47.2436C125.846 47.2436 125.617 47.289 125.422 47.3782C125.227 47.4691 125.064 47.5986 124.934 47.7686C124.805 47.9386 124.707 48.1472 124.643 48.3946C124.579 48.642 124.547 48.923 124.547 49.2344C124.547 49.8587 124.677 50.345 124.934 50.6934C125.193 51.0417 125.585 51.2167 126.112 51.2167H126.111Z" fill="#004E4E"/>
<path d="M130.005 51.866V46.5988H130.562C130.693 46.5988 130.775 46.6627 130.806 46.7906L130.873 47.3308C131.066 47.0919 131.285 46.8966 131.528 46.7435C131.77 46.5904 132.051 46.5146 132.369 46.5146C132.722 46.5146 133.008 46.6139 133.229 46.8108C133.449 47.0077 133.608 47.2753 133.705 47.6118C133.781 47.4217 133.88 47.2568 134 47.1188C134.119 46.9808 134.254 46.8664 134.402 46.7755C134.552 46.6846 134.71 46.619 134.878 46.5786C135.046 46.5365 135.216 46.5163 135.39 46.5163C135.667 46.5163 135.915 46.5601 136.13 46.6493C136.347 46.7368 136.531 46.8664 136.682 47.0363C136.833 47.2063 136.948 47.415 137.027 47.6623C137.106 47.9097 137.146 48.1941 137.146 48.5122V51.866H136.216V48.5122C136.216 48.0999 136.125 47.7869 135.945 47.5731C135.765 47.3594 135.504 47.2534 135.166 47.2534C135.013 47.2534 134.868 47.2803 134.732 47.3342C134.595 47.388 134.474 47.4671 134.37 47.5715C134.266 47.6758 134.183 47.8071 134.122 47.9636C134.062 48.1217 134.032 48.3035 134.032 48.5122V51.866H133.101V48.5122C133.101 48.0898 133.015 47.7734 132.847 47.5664C132.677 47.3577 132.43 47.2551 132.103 47.2551C131.874 47.2551 131.662 47.3174 131.469 47.4402C131.275 47.563 131.097 47.7313 130.934 47.9417V51.8677H130.003L130.005 51.866Z" fill="#004E4E"/>
<path d="M139.659 47.417C139.881 47.1427 140.137 46.9223 140.428 46.7574C140.719 46.5908 141.052 46.5083 141.426 46.5083C141.73 46.5083 142.006 46.5655 142.252 46.6816C142.498 46.7977 142.708 46.9694 142.881 47.1966C143.055 47.4238 143.188 47.7048 143.282 48.0414C143.376 48.3779 143.422 48.7633 143.422 49.2008C143.422 49.5895 143.369 49.9497 143.265 50.2845C143.161 50.6194 143.011 50.9089 142.816 51.1529C142.621 51.3969 142.382 51.5887 142.099 51.7301C141.816 51.8698 141.498 51.9404 141.145 51.9404C140.822 51.9404 140.546 51.8866 140.315 51.7772C140.085 51.6678 139.881 51.5164 139.704 51.3229V53.6519H138.774V46.6025H139.331C139.462 46.6025 139.544 46.6665 139.575 46.7944L139.657 47.4187L139.659 47.417ZM139.706 50.5992C139.876 50.8281 140.061 50.9896 140.263 51.0822C140.465 51.1748 140.689 51.2219 140.939 51.2219C141.431 51.2219 141.809 51.0469 142.074 50.6968C142.336 50.3468 142.469 49.847 142.469 49.1991C142.469 48.8558 142.439 48.5613 142.378 48.3156C142.318 48.07 142.23 47.868 142.116 47.7098C142.001 47.5517 141.862 47.4372 141.695 47.3649C141.528 47.2925 141.34 47.2555 141.128 47.2555C140.827 47.2555 140.563 47.3245 140.335 47.4641C140.108 47.6021 139.899 47.799 139.709 48.0514V50.5992H139.706Z" fill="#004E4E"/>
<path d="M144.686 47.3444C144.977 47.0634 145.29 46.8547 145.626 46.715C145.963 46.577 146.335 46.5063 146.744 46.5063C147.038 46.5063 147.301 46.5552 147.53 46.6511C147.758 46.7487 147.95 46.8833 148.107 47.0566C148.263 47.23 148.381 47.4403 148.46 47.686C148.539 47.9317 148.58 48.2026 148.58 48.4971V51.8661H148.169C148.078 51.8661 148.009 51.851 147.96 51.8224C147.912 51.7938 147.873 51.7349 147.846 51.6474L147.742 51.1476C147.604 51.2755 147.467 51.3899 147.336 51.4875C147.205 51.5868 147.065 51.6692 146.92 51.7366C146.776 51.8039 146.619 51.856 146.456 51.8931C146.293 51.9301 146.108 51.9469 145.907 51.9469C145.707 51.9469 145.51 51.9183 145.33 51.8611C145.15 51.8039 144.994 51.718 144.859 51.6036C144.724 51.4892 144.62 51.3445 144.543 51.1694C144.465 50.9944 144.425 50.7874 144.425 50.5485C144.425 50.3398 144.482 50.1412 144.596 49.9477C144.711 49.7559 144.896 49.5842 145.153 49.4361C145.409 49.288 145.744 49.1652 146.156 49.0693C146.569 48.9734 147.075 48.9195 147.674 48.906V48.4954C147.674 48.0865 147.585 47.7769 147.408 47.5682C147.232 47.3579 146.974 47.2535 146.634 47.2535C146.405 47.2535 146.214 47.2821 146.061 47.3393C145.906 47.3966 145.773 47.4605 145.66 47.5312C145.547 47.6019 145.45 47.6658 145.369 47.723C145.288 47.7802 145.207 47.8089 145.127 47.8089C145.064 47.8089 145.01 47.792 144.965 47.7601C144.92 47.7264 144.883 47.686 144.851 47.6372L144.684 47.341L144.686 47.3444ZM147.674 49.4967C147.249 49.5102 146.885 49.5438 146.586 49.5977C146.286 49.6515 146.042 49.7222 145.852 49.808C145.663 49.8956 145.525 49.9965 145.441 50.1143C145.357 50.2321 145.313 50.3634 145.313 50.5098C145.313 50.6562 145.335 50.7672 145.381 50.8682C145.426 50.9692 145.487 51.0516 145.566 51.1156C145.643 51.1795 145.736 51.2267 145.842 51.2553C145.948 51.2839 146.061 51.299 146.182 51.299C146.345 51.299 146.493 51.2822 146.629 51.2502C146.764 51.2166 146.892 51.1694 147.011 51.1072C147.131 51.0449 147.245 50.9709 147.355 50.8834C147.464 50.7959 147.57 50.6983 147.674 50.5872V49.495V49.4967Z" fill="#004E4E"/>
<path d="M151.08 47.3647C151.195 47.2368 151.316 47.1207 151.444 47.0164C151.572 46.9121 151.708 46.8229 151.851 46.7488C151.994 46.6748 152.147 46.6176 152.309 46.5772C152.47 46.5368 152.644 46.5166 152.832 46.5166C153.12 46.5166 153.374 46.5637 153.594 46.6596C153.815 46.7556 153.998 46.8902 154.146 47.0652C154.294 47.2402 154.405 47.4506 154.481 47.6963C154.557 47.9419 154.596 48.2146 154.596 48.5124V51.8663H153.665V48.5124C153.665 48.1136 153.574 47.804 153.392 47.5852C153.211 47.3647 152.935 47.2554 152.563 47.2554C152.288 47.2554 152.033 47.321 151.795 47.4522C151.558 47.5835 151.339 47.7619 151.137 47.9874V51.8663H150.207V46.5991H150.764C150.895 46.5991 150.978 46.663 151.008 46.7909L151.08 47.3631V47.3647Z" fill="#004E4E"/>
<path d="M160.64 46.6006L157.702 53.4211C157.67 53.49 157.631 53.5456 157.584 53.5877C157.537 53.6297 157.465 53.6499 157.369 53.6499H156.682L157.645 51.5599L155.472 46.6006H156.273C156.353 46.6006 156.416 46.6208 156.464 46.6612C156.511 46.7016 156.543 46.7453 156.56 46.7941L157.968 50.1109C158.024 50.2574 158.071 50.4088 158.108 50.5687C158.157 50.4054 158.209 50.2523 158.264 50.1059L159.631 46.7941C159.651 46.7386 159.686 46.6931 159.737 46.6561C159.787 46.6191 159.843 46.6023 159.905 46.6023H160.639L160.64 46.6006Z" fill="#004E4E"/>
<path d="M134.371 5.71845H136.054L132.65 9.12111L129.577 6.04829H130.815L131.808 3.48535L132.633 7.03947L133.875 4.64145L134.371 5.71845Z" fill="#F6B037"/>
<path d="M136.847 4.92584L136.633 5.13956H134.703L133.875 3.40289L132.8 5.46939L131.891 1.66622L130.484 5.38693H128.916L128.455 4.92584C127.344 3.81518 127.344 2.01793 128.455 0.910632C129.562 -0.200029 131.362 -0.200029 132.47 0.910632L132.65 1.09069L132.83 0.910632C133.941 -0.200029 135.738 -0.200029 136.845 0.910632C137.956 2.01793 137.956 3.81686 136.845 4.92584H136.847Z" fill="#F6B037"/>
<path d="M16.0995 41.5035C11.115 41.5035 7.24959 40.2431 4.50154 37.7205C1.75518 35.198 0.254106 31.7364 0 27.3358H8.67662C8.85836 29.4225 9.60385 30.9876 10.9148 32.0292C12.224 33.0726 13.9523 33.5942 16.0995 33.5942C20.8653 33.5942 23.2482 32.2295 23.2482 29.4983C23.2482 28.3994 22.8931 27.5159 22.1846 26.8529C21.4761 26.1898 20.283 25.6682 18.6103 25.2878L13.0435 24.0358C9.2959 23.2012 6.39471 21.8835 4.33831 20.0812C2.2819 18.2806 1.25538 15.615 1.25538 12.0878C1.25538 8.56062 2.62015 5.96235 5.348 3.83863C8.07753 1.71491 11.6788 0.651367 16.1534 0.651367C20.628 0.651367 24.1838 1.86636 27.0412 4.29299C29.897 6.7213 31.3425 9.83115 31.3795 13.6242H22.7029C22.5935 12.1837 21.9844 10.9889 20.8754 10.0398C19.7647 9.09239 18.1559 8.61784 16.0457 8.61784C13.9354 8.61784 12.4529 8.95945 11.4886 9.64267C10.5244 10.3259 10.0414 11.1421 10.0414 12.0895C10.0414 12.9629 10.3493 13.7016 10.9686 14.3091C11.5862 14.9166 12.7154 15.4097 14.3528 15.7883L19.5375 16.9259C23.5023 17.7993 26.5785 19.1641 28.7611 21.0219C30.9437 22.8814 32.0358 25.6311 32.0358 29.2711C32.0358 32.911 30.7434 36.0512 28.1603 38.2321C25.5772 40.413 21.5569 41.5035 16.0995 41.5035Z" fill="#004E4E"/>
<path d="M46.7152 41.0117C43.5498 41.0117 41.1669 40.1754 39.5666 38.501C37.9645 36.8283 37.1652 34.6254 37.1652 31.8976V19.6181H32.5256V12.4694H37.5472V4.99268H45.5692V12.4694H52.3913V19.6181H45.5692V29.8782C45.5692 31.2245 45.8603 32.1971 46.4426 32.7979C47.0231 33.3987 47.952 33.6982 49.2259 33.6982H52.5007V41.0117H46.7152Z" fill="#004E4E"/>
<path d="M64.3425 41.5036C61.2142 41.5036 58.7673 40.6672 57.0021 38.9928C55.2368 37.3201 54.355 35.1728 54.355 32.5527C54.355 29.9325 55.3091 27.6775 57.2191 26.1125C59.1291 24.5492 61.995 23.7667 65.815 23.7667H71.927V22.2387C71.927 21.1835 71.5719 20.3388 70.8634 19.701C70.1533 19.0649 69.0527 18.7451 67.5618 18.7451C66.2879 18.7451 65.2782 19.0447 64.5327 19.6454C63.7872 20.2462 63.4136 21.0018 63.4136 21.9105H55.5548C55.5548 19.0363 56.5999 16.6635 58.6916 14.7888C60.7833 12.9158 63.8309 11.9785 67.8327 11.9785C71.8344 11.9785 74.6902 12.9327 76.9468 14.8427C79.2018 16.7527 80.331 19.218 80.331 22.237V41.0105H72.7987L72.1979 38.4459H71.9792C70.1954 40.4838 67.6493 41.5019 64.3391 41.5019L64.3425 41.5036ZM66.4713 34.9541C68.144 34.9541 69.4734 34.5367 70.4562 33.6987C71.439 32.8623 71.9287 31.8257 71.9287 30.5888V29.389H66.5268C65.2529 29.389 64.2887 29.6448 63.6341 30.153C62.9794 30.6629 62.6513 31.3175 62.6513 32.1168C62.6513 32.9162 62.9794 33.6364 63.6341 34.1631C64.2887 34.6915 65.2344 34.9541 66.4713 34.9541Z" fill="#004E4E"/>
<path d="M132.771 12.4678V19.5609H123.226V19.5643H116.46V41.0118H108.056V19.5643H103.09V19.5609H95.0121V41.0101H86.6098V19.5609H81.6421V12.4678H86.6098V10.9953C86.6098 7.61455 87.7339 4.94391 89.9922 2.99858C92.2506 1.05324 95.1046 0.0805664 98.5628 0.0805664H102.055V7.28472H99.3268C96.4492 7.28472 95.0121 8.52327 95.0121 10.9953V12.4678H108.056V10.9953C108.056 7.61118 109.183 4.94728 111.44 3.00026C113.695 1.05492 116.55 0.0805664 120.007 0.0805664H123.501V7.28472H120.771C117.897 7.28472 116.46 8.52159 116.46 10.9953V12.4678H132.771Z" fill="#004E4E"/>
<path d="M128.887 41.012V12.4697H137.291V41.012H128.887Z" fill="#004E4E"/>
<path d="M140.238 41.0122V12.4699H147.768L148.423 15.1977H148.642C150.461 13.0505 153.063 11.9785 156.447 11.9785C159.612 11.9785 162.168 12.9057 164.115 14.7619C166.061 16.618 167.035 19.1103 167.035 22.2387V41.0122H158.631V24.8588C158.631 21.3653 157.031 19.6202 153.828 19.6202C152.3 19.6202 151.053 20.12 150.091 21.1213C149.126 22.1226 148.643 23.4772 148.643 25.187V41.0139H140.239L140.238 41.0122Z" fill="#004E4E"/>
<path d="M182.423 53.9999C178.566 53.9999 175.454 53.0458 173.09 51.1341C170.724 49.2241 169.505 46.6679 169.433 43.4672H177.674C177.783 44.4499 178.275 45.2493 179.148 45.8685C180.021 46.4861 181.112 46.7958 182.423 46.7958C184.205 46.7958 185.578 46.3768 186.544 45.5404C187.507 44.7024 187.99 43.6119 187.99 42.2656V38.2824H187.771C185.987 40.4297 183.459 41.5016 180.185 41.5016C176.656 41.5016 173.844 40.1285 171.752 37.3804C169.66 34.634 168.615 31.0968 168.615 26.7652C168.615 22.4336 169.66 18.8441 171.752 16.0961C173.844 13.3497 176.654 11.9766 180.185 11.9766C183.459 11.9766 185.987 13.0502 187.771 15.1958H187.99L188.863 12.4679H196.394V42.375C196.394 45.9039 195.084 48.7243 192.464 50.8345C189.844 52.9448 186.497 53.9999 182.423 53.9999ZM182.751 34.1342C186.497 34.1342 188.372 31.679 188.372 26.7669C188.372 24.5842 187.915 22.8021 187.007 21.4189C186.096 20.0373 184.678 19.3456 182.749 19.3456C180.821 19.3456 179.402 20.0373 178.492 21.4189C177.583 22.8021 177.127 24.5842 177.127 26.7669C177.127 31.679 179 34.1342 182.748 34.1342H182.751Z" fill="#004E4E"/>
<path d="M199.34 41.012V0H207.744V41.012H199.34Z" fill="#F6B037"/>
<path d="M239.519 12.4678V13.0147L225.165 53.5084H216.05V52.9631L219.406 43.1691L212.567 21.9808L212.192 20.8179L209.666 13.0147V12.4678H218.289L224.074 32.7155H224.293L230.459 12.4678H239.519Z" fill="#F6B037"/>
<path d="M247.403 17.3332C244.524 17.3332 242.181 14.9907 242.181 12.1114C242.181 9.23213 244.524 6.88965 247.403 6.88965C250.282 6.88965 252.625 9.23213 252.625 12.1114C252.625 14.9907 250.282 17.3332 247.403 17.3332ZM247.403 7.24977C244.722 7.24977 242.542 9.43071 242.542 12.1114C242.542 14.7922 244.722 16.9731 247.403 16.9731C250.084 16.9731 252.265 14.7922 252.265 12.1114C252.265 9.43071 250.084 7.24977 247.403 7.24977Z" fill="#024094"/>
<path d="M249.052 14.2769H248.423C248.299 14.2769 248.208 14.2281 248.152 14.1322L247.141 12.6732C247.107 12.6227 247.07 12.5873 247.03 12.5655C246.989 12.5436 246.929 12.5318 246.85 12.5318H246.459V14.2769H245.756V9.94531H247.031C247.316 9.94531 247.562 9.97392 247.767 10.0328C247.972 10.0917 248.142 10.1742 248.273 10.2819C248.406 10.3896 248.504 10.5175 248.566 10.6689C248.63 10.8187 248.66 10.987 248.66 11.1721C248.66 11.3219 248.639 11.4632 248.593 11.5928C248.548 11.7224 248.482 11.8419 248.398 11.9479C248.312 12.0539 248.208 12.1464 248.083 12.2239C247.959 12.3013 247.817 12.3635 247.659 12.4073C247.745 12.4594 247.819 12.5335 247.881 12.6277L249.051 14.2786L249.052 14.2769ZM247.013 12.0202C247.173 12.0202 247.314 12 247.434 11.9613C247.553 11.9226 247.654 11.8671 247.735 11.7981C247.816 11.7274 247.875 11.645 247.915 11.5474C247.955 11.4498 247.975 11.3421 247.975 11.2243C247.975 10.987 247.898 10.8069 247.742 10.6824C247.585 10.5579 247.348 10.4956 247.031 10.4956H246.459V12.0202H247.013Z" fill="#024094"/>
</svg>
